G04*
G04 #@! TF.GenerationSoftware,Altium Limited,Altium Designer,18.0.11 (651)*
G04*
G04 Layer_Color=16711935*
%FSLAX44Y44*%
%MOMM*%
G71*
G01*
G75*
%ADD61C,0.0127*%
D61*
X190800Y508000D02*
G03*
X190800Y508000I-2540J0D01*
G01*
X216200D02*
G03*
X216200Y508000I-2540J0D01*
G01*
X241600D02*
G03*
X241600Y508000I-2540J0D01*
G01*
X267000D02*
G03*
X267000Y508000I-2540J0D01*
G01*
X292400D02*
G03*
X292400Y508000I-2540J0D01*
G01*
X317800D02*
G03*
X317800Y508000I-2540J0D01*
G01*
X343200D02*
G03*
X343200Y508000I-2540J0D01*
G01*
X368600D02*
G03*
X368600Y508000I-2540J0D01*
G01*
X394000D02*
G03*
X394000Y508000I-2540J0D01*
G01*
X419400D02*
G03*
X419400Y508000I-2540J0D01*
G01*
X459740D02*
G03*
X459740Y508000I-2540J0D01*
G01*
X485140D02*
G03*
X485140Y508000I-2540J0D01*
G01*
X510540D02*
G03*
X510540Y508000I-2540J0D01*
G01*
X535940D02*
G03*
X535940Y508000I-2540J0D01*
G01*
X561340D02*
G03*
X561340Y508000I-2540J0D01*
G01*
X586740D02*
G03*
X586740Y508000I-2540J0D01*
G01*
X612140D02*
G03*
X612140Y508000I-2540J0D01*
G01*
X637540D02*
G03*
X637540Y508000I-2540J0D01*
G01*
X281940Y25400D02*
G03*
X281940Y25400I-2540J0D01*
G01*
X307340D02*
G03*
X307340Y25400I-2540J0D01*
G01*
X332740D02*
G03*
X332740Y25400I-2540J0D01*
G01*
X358140D02*
G03*
X358140Y25400I-2540J0D01*
G01*
X383540D02*
G03*
X383540Y25400I-2540J0D01*
G01*
X408940D02*
G03*
X408940Y25400I-2540J0D01*
G01*
X434340D02*
G03*
X434340Y25400I-2540J0D01*
G01*
X459740D02*
G03*
X459740Y25400I-2540J0D01*
G01*
X510540D02*
G03*
X510540Y25400I-2540J0D01*
G01*
X535940D02*
G03*
X535940Y25400I-2540J0D01*
G01*
X561340D02*
G03*
X561340Y25400I-2540J0D01*
G01*
X586740D02*
G03*
X586740Y25400I-2540J0D01*
G01*
X612140D02*
G03*
X612140Y25400I-2540J0D01*
G01*
X637540D02*
G03*
X637540Y25400I-2540J0D01*
G01*
X645052Y533785D02*
X660700Y518137D01*
X0Y533785D02*
X645052D01*
X0Y0D02*
Y533785D01*
X660700Y25400D02*
X685500Y50800D01*
X660700Y403860D02*
X685500Y378460D01*
X660700Y0D02*
Y25400D01*
Y403860D02*
Y518137D01*
X0Y0D02*
X660700D01*
X685500Y50800D02*
Y378460D01*
M02*
