M48
;Layer_Color=9474304
;FILE_FORMAT=4:4
METRIC,LZ
;TYPE=PLATED
T1F00S00C0.3000
T2F00S00C0.9000
T3F00S00C1.1000
%
T01
X0007112Y0002032
Y0003048
Y0004064
X0008128
Y0003048
Y0002032
X0009144
Y0003048
Y0004064
X0009906Y0004572
Y0006096
X001143
X0012446
Y000508
X0013462
Y0004064
Y0006096
X0014478Y000508
X0016002Y0003556
Y0002794
Y0002032
X0016764Y0002794
X0017526
Y0003556
X0016764
X00131919Y0002032
X0014478Y0008636
X0015494
Y0009652
X0014478
X0013462
Y0010668
X0014478
X0015494
X0012446
X001143
X0009652Y0010414
X0008636
X000762
Y0009398
Y0008382
Y0007366
X0008636
Y0008382
Y0009398
X0009652
X0009906Y002286
X0009144
Y0023622
X0009906
X0010668
Y002286
X001143
X0012192
X0012954
Y0023622
X0012192
X001143
X001397Y0026768
X0014986
X0014224Y0030988
X00178384Y00301193
X001016Y0030226
X00173965Y0015875
X0021336Y0015812
X0026162Y0020066
Y0020828
Y002159
X002794Y0020828
X0028194Y0019558
X0028956Y0021844
X0029886Y0028235
X0034331Y0029251
X0037338Y0028702
X0047285Y0029251
X0050587Y0028489
X00508Y0015494
X0047539Y0016043
X0037379Y0015027
X0033823Y0015789
X0023729Y00053369
X00230382Y00034065
X00204724Y00247396
X00207899Y00291897
X002413Y0027178
X004826Y0002794
X00608555Y00159345
X0064049Y0015027
Y0028489
X0060747Y0029251
X0063795Y0039665
X0060747Y0042713
X0050841Y0041951
X0047285Y0042459
X0037125Y0041697
X0034077Y0042459
X00300486Y00396701
X00294694Y00383493
X0028956Y0037338
X0028067Y0035433
X0028448Y003429
X0025654Y0034798
X00254Y0036068
X00246917Y00368481
X00256058Y00374275
X00244907Y00354406
X0020574Y0035814
Y0035052
Y003429
Y0033528
X0019812
Y003429
Y0035052
X0019812Y0035814
X0019812Y0036576
X0020574
Y0037338
Y00381
X0019812
Y0037338
Y0039624
X0020574
Y0040386
X0019812
Y0041148
X0020574
X0020066Y0047244
Y0048006
Y0048768
X0019304
X0018542
Y0048006
Y0047244
X0019304
Y0048006
X001905Y0041148
Y0040386
Y0039624
Y00381
Y0037338
Y0036576
Y0035814
Y0035052
Y003429
Y0033528
X0015505Y0033539
X0014478Y0035306
X00132994Y00354686
X0011557Y0035433
X0010414Y003429
X0009652
X0010033Y0033655
X0009652Y0032258
X0009271Y0035179
X000897Y0037164
X00094818Y00390525
X00094785Y00400515
X0006604Y0038608
X0007112Y003556
X0015281Y0036744
X0012954Y0043434
X0012192
X001143
X0010668
Y0044196
X001143
X0012192
X0012954
T02
X002794Y000254
X003048
X003302
X003556
X00381
X004064
X004318
X004572
X00508
X005334
X005588
X005842
X00399466Y00057861
X00374066
X006096Y000254
X00635
Y00508
X006096
X005842
X005588
X005334
X00508
X004826
X004572
X0041656
X0039116
X0036576
X0034036
X0031496
X0028956
X0026416
X0023876
X00242392Y00446684
Y00421284
X0007112Y0051816
X0004572
T03
X0003048Y0002366
Y0007366
Y0012366
Y0017366
Y0022366
Y0027366
M30
