G04*
G04 #@! TF.GenerationSoftware,Altium Limited,Altium Designer,18.0.11 (651)*
G04*
G04 Layer_Physical_Order=1*
G04 Layer_Color=255*
%FSLAX44Y44*%
%MOMM*%
G71*
G01*
G75*
%ADD13C,0.6000*%
%ADD15R,0.9000X1.5000*%
%ADD16R,1.5500X2.2000*%
%ADD17R,1.0000X0.9500*%
%ADD18R,1.0000X0.9500*%
%ADD19O,1.4000X0.4500*%
%ADD20R,0.9000X0.5000*%
%ADD21R,2.1000X3.8500*%
%ADD22R,4.9500X1.6500*%
%ADD23R,0.9720X0.8020*%
%ADD24R,0.7200X0.9900*%
%ADD25R,0.9500X0.8000*%
%ADD26R,0.8000X0.8000*%
%ADD27R,0.9500X0.9000*%
%ADD28R,0.9500X1.0000*%
%ADD29R,0.8000X0.9500*%
%ADD30R,0.8500X0.5000*%
%ADD31R,1.0500X0.5500*%
%ADD32R,0.9900X0.7200*%
%ADD33R,2.8000X0.9500*%
%ADD34R,2.2000X1.5500*%
%ADD35R,1.1500X1.4500*%
%ADD36R,1.0000X0.9000*%
%ADD37R,0.9000X1.0000*%
%ADD38R,2.8000X1.3500*%
%ADD39R,3.4000X1.6500*%
%ADD40R,1.5500X0.4500*%
%ADD41R,2.8500X6.5000*%
%ADD46C,2.5000*%
%ADD47R,2.5000X2.5000*%
%ADD49C,0.2540*%
%ADD50C,0.5080*%
%ADD51C,1.5240*%
%ADD52C,0.7620*%
%ADD53C,1.0160*%
%ADD54C,1.2700*%
%ADD55C,0.4572*%
%ADD56C,0.4826*%
%ADD57C,0.3810*%
%ADD58C,1.5000*%
%ADD59R,1.5000X1.5000*%
%ADD60R,1.5000X1.5000*%
G36*
X137160Y177800D02*
X86360D01*
Y243840D01*
X137160D01*
Y177800D01*
D02*
G37*
G36*
X106680Y79196D02*
X98604Y71120D01*
X60960D01*
X38100Y93980D01*
X5080D01*
Y139700D01*
X106680D01*
Y79196D01*
D02*
G37*
G36*
X208280Y76200D02*
X200969Y68889D01*
X190500D01*
X190500Y68889D01*
X189410Y68672D01*
X189272Y68580D01*
X187960D01*
X180649Y61269D01*
X164791D01*
X139700Y86360D01*
X109220Y86360D01*
X109220Y111120D01*
X208280Y111120D01*
Y76200D01*
D02*
G37*
G36*
X190500Y18288D02*
X176568D01*
Y19315D01*
X165020D01*
Y18288D01*
X156464D01*
X155194Y17018D01*
X139249D01*
X138938Y17329D01*
Y25126D01*
X140208Y25511D01*
X141154Y24094D01*
X142919Y22915D01*
X145000Y22501D01*
X147000D01*
X149081Y22915D01*
X150846Y24094D01*
X152024Y25859D01*
X152438Y27940D01*
X152024Y30021D01*
X150846Y31786D01*
X149081Y32964D01*
X147000Y33379D01*
X145000D01*
X142919Y32964D01*
X141154Y31786D01*
X140208Y30369D01*
X138938Y30754D01*
Y37610D01*
X139376Y38666D01*
Y38814D01*
X139524D01*
X139949Y38990D01*
X157480Y38990D01*
X157783Y39116D01*
X190500D01*
Y18288D01*
D02*
G37*
G36*
X157480Y60098D02*
Y57985D01*
X156593D01*
Y46917D01*
X157480D01*
Y40640D01*
X139700Y40640D01*
X139524Y40464D01*
X137726D01*
Y38666D01*
X127000Y27940D01*
X127000Y7620D01*
X5080D01*
Y55880D01*
X101600D01*
X114100Y68380D01*
X124632D01*
Y68580D01*
X148998Y68580D01*
X157480Y60098D01*
D02*
G37*
G36*
X217170Y466491D02*
X217457D01*
X217647Y466412D01*
Y447388D01*
X140470D01*
Y466491D01*
X180340D01*
X180340Y492760D01*
X217170Y492760D01*
X217170Y466491D01*
D02*
G37*
G36*
X136854Y420761D02*
X135956Y419862D01*
X99087Y419862D01*
X99038Y446141D01*
X99935Y447040D01*
X136804Y447040D01*
X136854Y420761D01*
D02*
G37*
G36*
X174353Y412278D02*
X178905Y407726D01*
Y391884D01*
X178853Y391757D01*
X165138Y391584D01*
X157488D01*
X140495Y408577D01*
Y415303D01*
X141700Y415460D01*
X174353D01*
Y412278D01*
D02*
G37*
G36*
X214627Y420751D02*
X213523Y419646D01*
Y389634D01*
X231958Y389636D01*
X232855Y388737D01*
X232847Y385061D01*
X210726D01*
X210619Y384955D01*
X207647Y387927D01*
X183881D01*
Y390756D01*
Y434246D01*
X214592D01*
X214627Y420751D01*
D02*
G37*
G36*
X121920Y332740D02*
X93980D01*
Y340360D01*
X87630D01*
Y356870D01*
X88591Y357831D01*
X121920D01*
Y332740D01*
D02*
G37*
D13*
X115570Y354330D02*
D03*
X92710Y351790D02*
D03*
X100330Y336550D02*
D03*
X104140Y342900D02*
D03*
X96520D02*
D03*
X71120Y20320D02*
D03*
Y30480D02*
D03*
Y40640D02*
D03*
X99060Y45720D02*
D03*
X81280Y20320D02*
D03*
Y30480D02*
D03*
Y40640D02*
D03*
X91440D02*
D03*
Y30480D02*
D03*
Y20320D02*
D03*
X160020D02*
D03*
X175260Y27940D02*
D03*
X167640D02*
D03*
X160020D02*
D03*
X175260Y35560D02*
D03*
X167640D02*
D03*
X160020D02*
D03*
X86360Y73660D02*
D03*
X76200Y83820D02*
D03*
X114300Y60960D02*
D03*
X134620Y40640D02*
D03*
X124460Y50800D02*
D03*
Y60960D02*
D03*
X134620D02*
D03*
Y50800D02*
D03*
X144780D02*
D03*
X76200Y73660D02*
D03*
Y93980D02*
D03*
Y104140D02*
D03*
X96520D02*
D03*
X86360D02*
D03*
Y83820D02*
D03*
Y93980D02*
D03*
X96520D02*
D03*
X144780Y86360D02*
D03*
X154940D02*
D03*
Y96520D02*
D03*
X144780D02*
D03*
X134620D02*
D03*
X154940Y106680D02*
D03*
X144780D02*
D03*
X134620D02*
D03*
X124460D02*
D03*
X114300D02*
D03*
X131919Y20320D02*
D03*
X66040Y386080D02*
D03*
X149860Y267680D02*
D03*
X213360Y158120D02*
D03*
X261620Y200660D02*
D03*
Y208280D02*
D03*
X482600Y27940D02*
D03*
X101600Y302260D02*
D03*
X96520Y322580D02*
D03*
X71120Y355600D02*
D03*
X256058Y374275D02*
D03*
X99060Y60960D02*
D03*
X94785Y400515D02*
D03*
X139700Y267680D02*
D03*
X142240Y309880D02*
D03*
X508000Y154940D02*
D03*
X204724Y247396D02*
D03*
X173965Y158750D02*
D03*
X241300Y271780D02*
D03*
X373790Y150270D02*
D03*
X338230Y157890D02*
D03*
X373380Y287020D02*
D03*
X343310Y292510D02*
D03*
X371250Y416970D02*
D03*
X340770Y424590D02*
D03*
X508410Y419510D02*
D03*
X505870Y284890D02*
D03*
X472850Y292510D02*
D03*
X637950Y396650D02*
D03*
X640490Y284890D02*
D03*
Y150270D02*
D03*
X472850Y424590D02*
D03*
X475390Y160430D02*
D03*
X608555Y159345D02*
D03*
X607470Y292510D02*
D03*
Y427130D02*
D03*
X185420Y472440D02*
D03*
Y480060D02*
D03*
Y487680D02*
D03*
X193040D02*
D03*
Y480060D02*
D03*
Y472440D02*
D03*
X200660D02*
D03*
Y480060D02*
D03*
Y487680D02*
D03*
X298860Y282350D02*
D03*
X152810Y367440D02*
D03*
X230382Y34065D02*
D03*
X237290Y53369D02*
D03*
X300486Y396701D02*
D03*
X246917Y368481D02*
D03*
X294694Y383493D02*
D03*
X244907Y354406D02*
D03*
X89700Y371640D02*
D03*
X94818Y390525D02*
D03*
X106680Y434340D02*
D03*
X114300D02*
D03*
X121920D02*
D03*
X129540D02*
D03*
Y441960D02*
D03*
X121920D02*
D03*
X114300D02*
D03*
X106680D02*
D03*
X91440Y228600D02*
D03*
X99060D02*
D03*
X106680D02*
D03*
X114300D02*
D03*
X121920D02*
D03*
X129540D02*
D03*
Y236220D02*
D03*
X121920D02*
D03*
X114300D02*
D03*
X106680D02*
D03*
X99060D02*
D03*
X91440D02*
D03*
X144780Y353060D02*
D03*
X207899Y291897D02*
D03*
X132994Y354686D02*
D03*
X178384Y301193D02*
D03*
X205740Y335280D02*
D03*
Y342900D02*
D03*
Y350520D02*
D03*
Y358140D02*
D03*
Y365760D02*
D03*
Y373380D02*
D03*
Y381000D02*
D03*
X190500D02*
D03*
Y373380D02*
D03*
Y365760D02*
D03*
Y358140D02*
D03*
Y350520D02*
D03*
Y342900D02*
D03*
Y335280D02*
D03*
X198120D02*
D03*
Y342900D02*
D03*
Y350520D02*
D03*
X198120Y358140D02*
D03*
X198120Y365760D02*
D03*
Y373380D02*
D03*
Y381000D02*
D03*
X205740Y396240D02*
D03*
X198120D02*
D03*
X190500D02*
D03*
Y403860D02*
D03*
X198120D02*
D03*
X205740D02*
D03*
Y411480D02*
D03*
X198120D02*
D03*
X190500D02*
D03*
X155050Y335390D02*
D03*
X279400Y208280D02*
D03*
X289560Y373380D02*
D03*
X261620Y215900D02*
D03*
X254000Y360680D02*
D03*
X289560Y218440D02*
D03*
X284480Y342900D02*
D03*
X280670Y354330D02*
D03*
X256540Y347980D02*
D03*
X281940Y195580D02*
D03*
D15*
X588020Y108850D02*
D03*
X621020D02*
D03*
Y157850D02*
D03*
X588020D02*
D03*
Y242200D02*
D03*
X621020D02*
D03*
Y291200D02*
D03*
X588020D02*
D03*
Y375550D02*
D03*
X621020D02*
D03*
Y424550D02*
D03*
X588020D02*
D03*
X454670Y375550D02*
D03*
X487670D02*
D03*
Y424550D02*
D03*
X454670D02*
D03*
Y242200D02*
D03*
X487670D02*
D03*
Y291200D02*
D03*
X454670D02*
D03*
Y108850D02*
D03*
X487670D02*
D03*
Y157850D02*
D03*
X454670D02*
D03*
X321320Y108850D02*
D03*
X354320D02*
D03*
Y157850D02*
D03*
X321320D02*
D03*
Y242200D02*
D03*
X354320D02*
D03*
Y291200D02*
D03*
X321320D02*
D03*
Y375550D02*
D03*
X354320D02*
D03*
Y424550D02*
D03*
X321320D02*
D03*
D16*
X497520Y58420D02*
D03*
X457520D02*
D03*
X147000Y27940D02*
D03*
X107000D02*
D03*
D17*
X384810Y125350D02*
D03*
Y141350D02*
D03*
Y258700D02*
D03*
Y274700D02*
D03*
Y392050D02*
D03*
Y408050D02*
D03*
X518160Y125350D02*
D03*
Y141350D02*
D03*
Y258700D02*
D03*
Y274700D02*
D03*
Y392050D02*
D03*
Y408050D02*
D03*
X651510Y392050D02*
D03*
Y408050D02*
D03*
Y125350D02*
D03*
Y141350D02*
D03*
Y258700D02*
D03*
Y274700D02*
D03*
X271882Y164464D02*
D03*
Y148464D02*
D03*
X102667Y368934D02*
D03*
Y352934D02*
D03*
X50800Y393320D02*
D03*
Y409320D02*
D03*
D18*
X200280Y91440D02*
D03*
X216280D02*
D03*
D19*
X183860Y227370D02*
D03*
Y220870D02*
D03*
Y214370D02*
D03*
Y207870D02*
D03*
Y201370D02*
D03*
Y194870D02*
D03*
Y188370D02*
D03*
Y181870D02*
D03*
Y175370D02*
D03*
Y168870D02*
D03*
X242860Y227370D02*
D03*
Y220870D02*
D03*
Y214370D02*
D03*
Y207870D02*
D03*
Y201370D02*
D03*
Y194870D02*
D03*
Y188370D02*
D03*
Y181870D02*
D03*
Y175370D02*
D03*
Y168870D02*
D03*
D20*
X221280Y73660D02*
D03*
X195280D02*
D03*
D21*
X127000Y199680D02*
D03*
Y267680D02*
D03*
D22*
X234960Y134620D02*
D03*
X140960D02*
D03*
D23*
X145277Y61951D02*
D03*
X162977Y71451D02*
D03*
Y52451D02*
D03*
X100548Y83414D02*
D03*
X118248Y92914D02*
D03*
Y73914D02*
D03*
D24*
X43900Y492760D02*
D03*
X57700D02*
D03*
X248319Y64186D02*
D03*
X262119D02*
D03*
X185988Y34341D02*
D03*
X199788D02*
D03*
X547920Y467360D02*
D03*
X534120D02*
D03*
X547920Y482600D02*
D03*
X534120D02*
D03*
D25*
X86360Y317120D02*
D03*
Y333120D02*
D03*
D26*
X55879Y340241D02*
D03*
Y325241D02*
D03*
D27*
X259080Y246760D02*
D03*
Y230760D02*
D03*
D28*
X219330Y247396D02*
D03*
X235330D02*
D03*
X160400Y170180D02*
D03*
X144400D02*
D03*
X208609Y301142D02*
D03*
X192609D02*
D03*
D29*
X234060Y480060D02*
D03*
X218060D02*
D03*
X246102Y96901D02*
D03*
X262102D02*
D03*
D30*
X170794Y15291D02*
D03*
X196794D02*
D03*
D31*
X219538Y34113D02*
D03*
Y15113D02*
D03*
X242538Y24613D02*
D03*
D32*
X282524Y482058D02*
D03*
Y468258D02*
D03*
D33*
X117831Y390492D02*
D03*
Y424492D02*
D03*
D34*
X93980Y117160D02*
D03*
Y157160D02*
D03*
D35*
X133155Y343230D02*
D03*
X115155D02*
D03*
D36*
X50800Y378840D02*
D03*
Y362840D02*
D03*
D37*
X50420Y429260D02*
D03*
X66420D02*
D03*
D38*
X200660Y427460D02*
D03*
Y456460D02*
D03*
D39*
X157480Y420420D02*
D03*
Y458420D02*
D03*
D40*
X225120Y322390D02*
D03*
Y328890D02*
D03*
Y335390D02*
D03*
Y341890D02*
D03*
Y348390D02*
D03*
Y354890D02*
D03*
Y361390D02*
D03*
Y367890D02*
D03*
Y374390D02*
D03*
Y380890D02*
D03*
Y387390D02*
D03*
Y393890D02*
D03*
X171120D02*
D03*
Y387390D02*
D03*
Y380890D02*
D03*
Y374390D02*
D03*
Y367890D02*
D03*
Y361390D02*
D03*
Y354890D02*
D03*
Y348390D02*
D03*
Y341890D02*
D03*
Y335390D02*
D03*
Y328890D02*
D03*
Y322390D02*
D03*
D41*
X198120Y358140D02*
D03*
D46*
X30480Y73660D02*
D03*
Y123660D02*
D03*
Y223660D02*
D03*
Y273660D02*
D03*
D47*
Y23660D02*
D03*
Y173660D02*
D03*
D49*
X607060Y426720D02*
X609230Y424550D01*
X648380Y407680D02*
X651510Y404550D01*
X472810Y424550D02*
X487670D01*
X516310Y406400D02*
X518160Y404550D01*
X472440Y292100D02*
X473340Y291200D01*
X382960Y406400D02*
X384810Y404550D01*
X340730Y424550D02*
X354320D01*
X342900Y292100D02*
X343800Y291200D01*
X622880Y271200D02*
X651510D01*
X515040Y274320D02*
X518160Y271200D01*
X607060Y160020D02*
X609230Y157850D01*
X649660Y139700D02*
X651510Y137850D01*
X516310Y139700D02*
X518160Y137850D01*
X381690Y274320D02*
X384810Y271200D01*
X382960Y139700D02*
X384810Y137850D01*
X338190Y157850D02*
X354320D01*
X131919Y20320D02*
X139539Y12700D01*
X168204D02*
X170794Y15291D01*
X139539Y12700D02*
X168204D01*
X237617Y96901D02*
X246102D01*
X231140Y90424D02*
X237617Y96901D01*
X231140Y73660D02*
Y90424D01*
X198120Y137160D02*
Y169460D01*
X195580Y134620D02*
X198120Y137160D01*
X142240Y134620D02*
X195580D01*
X163830Y158750D02*
X173965D01*
X160400Y162180D02*
X163830Y158750D01*
X160400Y162180D02*
Y170180D01*
X182880Y58420D02*
X190500Y66040D01*
X162977Y58420D02*
X182880D01*
X162977Y52451D02*
Y58420D01*
X295021Y96901D02*
X299695Y101575D01*
X262102Y96901D02*
X295021D01*
X256130Y348390D02*
X256540Y347980D01*
X225120Y348390D02*
X256130D01*
X640080Y284480D02*
X657860D01*
X609600Y388620D02*
X651510D01*
X589280Y259080D02*
X657860D01*
X508000Y419100D02*
X525780D01*
X457200Y391160D02*
X525780D01*
X505460Y284480D02*
X523240D01*
X640080Y149860D02*
X660400D01*
X596920Y127000D02*
X660400D01*
X459740Y259080D02*
X525780D01*
X459740Y127000D02*
X525780D01*
X370840Y416560D02*
X391160D01*
X325120Y393700D02*
X391160D01*
X323860Y257820D02*
X392440D01*
X325120Y127000D02*
X391160D01*
X373380Y149860D02*
X391160D01*
X321320Y242200D02*
Y255280D01*
X323860Y257820D01*
X242860Y214370D02*
X260090D01*
X238760D02*
X242860D01*
Y220870D02*
X256430D01*
X238760D02*
X242860D01*
X237780D02*
X238760D01*
X86360Y314960D02*
X93980Y322580D01*
X116840Y317500D02*
X134620D01*
X142240Y309880D01*
X58800Y378840D02*
X66040Y386080D01*
X50800Y378840D02*
X58800D01*
X50800D02*
Y393320D01*
Y353060D02*
Y362840D01*
X30480Y332740D02*
X50800Y353060D01*
X30480Y273660D02*
Y332740D01*
X50420Y363220D02*
X50800Y362840D01*
X40640Y363220D02*
X50420D01*
X38100Y365760D02*
X40640Y363220D01*
X38100Y365760D02*
Y406400D01*
X41020Y409320D01*
X50800D01*
X50420Y409700D02*
X50800Y409320D01*
X50420Y409700D02*
Y429260D01*
X66420D02*
X73660D01*
X79858Y423062D01*
Y365709D02*
Y423062D01*
X46241Y482600D02*
X50800Y487159D01*
X27800Y482600D02*
X46241D01*
X11684Y466484D02*
X27800Y482600D01*
X50800Y487159D02*
Y513080D01*
X25453Y490940D02*
X42080D01*
X71120Y497840D02*
Y518160D01*
X66040Y492760D02*
X71120Y497840D01*
X57700Y492760D02*
X66040D01*
X112793Y81280D02*
X116840D01*
X118248Y82688D01*
Y92914D01*
X192210Y175370D02*
X198120Y169460D01*
X183860Y175370D02*
X192210D01*
X194050Y181870D02*
X203200Y172720D01*
X183860Y181870D02*
X194050D01*
X203200Y137160D02*
Y172720D01*
Y137160D02*
X205740Y134620D01*
X250093Y158120D02*
X256437Y164464D01*
X213360Y158120D02*
X250093D01*
X183860Y252440D02*
X238760Y307340D01*
X183860Y227370D02*
Y252440D01*
X198120Y226780D02*
Y260953D01*
X192210Y220870D02*
X198120Y226780D01*
X183860Y220870D02*
X192210D01*
X198120Y260953D02*
X242824Y305657D01*
X242860Y188370D02*
X264570D01*
X269240Y193040D01*
X242860Y181870D02*
X279838D01*
X291084Y193116D01*
X242860Y201370D02*
X260910D01*
X261620Y200660D01*
X238760Y208280D02*
X261620D01*
X259080Y223520D02*
Y227814D01*
X256430Y220870D02*
X259080Y223520D01*
X7620Y473107D02*
X25453Y490940D01*
X7620Y196520D02*
Y473107D01*
X42080Y490940D02*
X43900Y492760D01*
X45720Y518160D02*
X50800Y513080D01*
X457200Y25400D02*
X457520Y25720D01*
X74040Y333120D02*
X86360D01*
X11684Y242456D02*
Y466484D01*
X71120Y342900D02*
Y355600D01*
X68461Y340241D02*
X71120Y342900D01*
X55879Y340241D02*
X68461D01*
X66161Y325241D02*
X74040Y333120D01*
X55879Y325241D02*
X66161D01*
X101600Y302260D02*
X116840Y317500D01*
X93980Y322580D02*
X96520D01*
X86360Y314960D02*
Y317120D01*
X11684Y242456D02*
X30480Y223660D01*
X7620Y196520D02*
X30480Y173660D01*
X52324Y195504D02*
Y262477D01*
X30480Y173660D02*
X52324Y195504D01*
Y262477D02*
X112237Y322390D01*
X30480Y223660D02*
X48260Y241440D01*
Y264160D01*
X112990Y328890D01*
X171120D01*
X142240Y134620D02*
X144400Y136780D01*
Y170180D01*
X162977Y71451D02*
X163347Y71821D01*
X186461Y9119D02*
X238996D01*
X180289Y15291D02*
X186461Y9119D01*
X170794Y15291D02*
X180289D01*
X660400Y149860D02*
X662940Y147320D01*
Y129540D02*
Y147320D01*
X660400Y127000D02*
X662940Y129540D01*
X624840Y139700D02*
X649660D01*
X621020Y143520D02*
X624840Y139700D01*
X621020Y143520D02*
Y157850D01*
X588020Y118100D02*
X596920Y127000D01*
X619760Y274320D02*
X622880Y271200D01*
X619760Y274320D02*
Y289940D01*
X662940Y264160D02*
Y279400D01*
X657860Y259080D02*
X662940Y264160D01*
X639618Y396650D02*
X643454Y400486D01*
X637950Y396650D02*
X639618D01*
X643454Y400486D02*
X651510D01*
Y392050D02*
Y400486D01*
Y388620D02*
Y392050D01*
X596530Y375550D02*
X609600Y388620D01*
X637540Y396240D02*
X637950Y396650D01*
X621020Y407680D02*
X648380D01*
X621020D02*
Y424550D01*
X490220Y406400D02*
X516310D01*
X487675Y408945D02*
X490220Y406400D01*
X528320Y393700D02*
Y416560D01*
X525780Y391160D02*
X528320Y393700D01*
X454660Y388620D02*
X457200Y391160D01*
X490220Y274320D02*
X515040D01*
X487670Y276870D02*
X490220Y274320D01*
X528320Y261620D02*
Y279400D01*
X525780Y259080D02*
X528320Y261620D01*
X454670Y254010D02*
X459740Y259080D01*
X523240Y284480D02*
X528320Y279400D01*
X491600Y139700D02*
X516310D01*
X487670Y143630D02*
X491600Y139700D01*
X528320Y129540D02*
Y149860D01*
X525780Y127000D02*
X528320Y129540D01*
X454660Y121920D02*
X459740Y127000D01*
X393700Y129540D02*
Y147320D01*
X391160Y127000D02*
X393700Y129540D01*
X322580Y124460D02*
X325120Y127000D01*
X358140Y139700D02*
X382960D01*
X355600Y142240D02*
X358140Y139700D01*
X393700Y259080D02*
Y281940D01*
X392440Y257820D02*
X393700Y259080D01*
X360680Y274320D02*
X381690D01*
X354320Y280680D02*
X360680Y274320D01*
X354320Y280680D02*
Y291200D01*
X355600Y406400D02*
X382960D01*
X353060Y408940D02*
X355600Y406400D01*
X391160Y416560D02*
X396240Y411480D01*
Y398780D02*
Y411480D01*
X391160Y393700D02*
X396240Y398780D01*
X322580Y391160D02*
X325120Y393700D01*
X99060Y67547D02*
X112793Y81280D01*
X99060Y60960D02*
Y67547D01*
X262119Y64186D02*
X262838Y63467D01*
Y45973D02*
Y63467D01*
X231140Y50876D02*
Y73660D01*
Y50876D02*
X242538Y39478D01*
X221280Y73660D02*
X231140D01*
X221280D02*
Y78440D01*
X216280Y83440D02*
X221280Y78440D01*
X216280Y83440D02*
Y91440D01*
X200280D02*
X200660Y91060D01*
Y83820D02*
Y91060D01*
X195280Y78440D02*
X200660Y83820D01*
X195280Y73660D02*
Y78440D01*
X210820Y73660D02*
X221280D01*
X205740Y68580D02*
X210820Y73660D01*
X205740Y66040D02*
Y68580D01*
X190500Y66040D02*
X205740D01*
X180503Y71451D02*
X182712Y73660D01*
X195280D01*
X234290Y478282D02*
X236068Y480060D01*
X241300D01*
X242951Y478409D01*
Y447243D02*
Y478409D01*
X162977Y71451D02*
X180503D01*
X225120Y367890D02*
X225711Y368481D01*
X508000Y154940D02*
X523240D01*
X528320Y149860D01*
X99999Y350266D02*
X102667Y352934D01*
X204724Y247396D02*
X205740Y246380D01*
X482600Y510540D02*
X492760Y520700D01*
X596900Y480060D02*
Y513080D01*
X589280Y520700D02*
X596900Y513080D01*
X492760Y520700D02*
X589280D01*
X588020Y471180D02*
X596900Y480060D01*
X588020Y424550D02*
Y471180D01*
X391160Y149860D02*
X393700Y147320D01*
X321320Y108850D02*
X322580Y110110D01*
Y124460D01*
X337820Y157480D02*
X338190Y157850D01*
X354320D02*
X355600Y156570D01*
Y142240D02*
Y156570D01*
X388620Y287020D02*
X393700Y281940D01*
X373380Y287020D02*
X388620D01*
X343800Y291200D02*
X354320D01*
X321320Y375550D02*
X322580Y376810D01*
Y391160D01*
X340360Y424180D02*
X340730Y424550D01*
X353060Y423290D02*
X354320Y424550D01*
X353060Y408940D02*
Y423290D01*
X454670Y375550D02*
Y388610D01*
X454660Y388620D02*
X454670Y388610D01*
X487670Y408940D02*
Y424550D01*
X525780Y419100D02*
X528320Y416560D01*
X454670Y242200D02*
Y254010D01*
X487670Y276870D02*
Y291200D01*
X473340D02*
X487670D01*
Y143630D02*
Y157850D01*
X454660Y108860D02*
X454670Y108850D01*
X454660Y108860D02*
Y121920D01*
X619760Y289940D02*
X621020Y291200D01*
X607470Y292510D02*
X608780Y291200D01*
X621020D01*
X588020Y375550D02*
X596530D01*
X657860Y284480D02*
X662940Y279400D01*
X588020Y242200D02*
X589280Y243460D01*
Y259080D01*
X588020Y108850D02*
Y118100D01*
X472440Y424180D02*
X472810Y424550D01*
X477110Y160430D02*
X479690Y157850D01*
X475390Y160430D02*
X477110D01*
X479690Y157850D02*
X487670D01*
X609230D02*
X621020D01*
X609230Y424550D02*
X621020D01*
X200660Y456460D02*
X222123D01*
X299695Y101575D02*
Y281515D01*
X298860Y282350D02*
X299695Y281515D01*
X285496Y230698D02*
X295631Y220563D01*
X285496Y230698D02*
Y329975D01*
X301752Y340483D02*
X307035Y335200D01*
Y88849D02*
Y335200D01*
X152810Y367440D02*
X153260Y367890D01*
X152400Y367030D02*
X152810Y367440D01*
X153260Y367890D02*
X171120D01*
X235330Y247396D02*
X235356Y247370D01*
X254992Y247396D02*
X255245Y247649D01*
X235330Y247396D02*
X254992D01*
X242341Y421234D02*
X242392Y421284D01*
X242341Y383667D02*
Y421234D01*
X239564Y380890D02*
X242341Y383667D01*
X225120Y380890D02*
X239564D01*
X242392Y446684D02*
X242951Y447243D01*
X222123Y456398D02*
X225120Y453401D01*
X222123Y456398D02*
Y456460D01*
X225120Y393890D02*
Y453401D01*
X238760Y307340D02*
Y326993D01*
X236863Y328890D02*
X238760Y326993D01*
X225120Y328890D02*
X236863D01*
X230334Y34113D02*
X230382Y34065D01*
X219538Y34113D02*
X230334D01*
X237092Y52959D02*
X248319Y64186D01*
X236880Y52959D02*
X237092D01*
X242538Y24613D02*
Y39478D01*
X219310Y34341D02*
X219538Y34113D01*
X199788Y34341D02*
X219310D01*
X238996Y9119D02*
X250582Y20705D01*
Y33717D01*
X262838Y45973D01*
X219360Y15291D02*
X219538Y15113D01*
X196794Y15291D02*
X219360D01*
X118248Y73914D02*
X147693D01*
X162977Y58629D01*
X265608Y134620D02*
X271882Y140894D01*
X234960Y134620D02*
X265608D01*
X256437Y164464D02*
X271882D01*
Y140894D02*
Y148464D01*
X307035Y88849D02*
X315900Y79985D01*
X344627Y57861D02*
X374066D01*
X330200Y43434D02*
X344627Y57861D01*
X330200Y25400D02*
Y43434D01*
X399466Y57861D02*
Y74397D01*
X393878Y79985D02*
X399466Y74397D01*
X315900Y79985D02*
X393878D01*
X301752Y340483D02*
Y369817D01*
X304749Y372814D01*
Y388881D01*
X300486Y393145D02*
X304749Y388881D01*
X300486Y393145D02*
Y396701D01*
X225235Y374275D02*
X256058D01*
X225120Y374390D02*
X225235Y374275D01*
X295631Y215798D02*
Y220563D01*
X291084Y211252D02*
X295631Y215798D01*
X291084Y193116D02*
Y211252D01*
X293624Y394259D02*
X300685Y387198D01*
Y374498D02*
Y387198D01*
X297688Y371500D02*
X300685Y374498D01*
X584200Y508000D02*
X584810Y507390D01*
Y480136D02*
Y507390D01*
X572033Y467360D02*
X584810Y480136D01*
X547920Y467360D02*
X572033D01*
X533815Y467665D02*
X534120Y467360D01*
X525043Y467665D02*
X533815D01*
X505028Y487680D02*
X525043Y467665D01*
X414687Y487680D02*
X505028D01*
X400463Y473456D02*
X414687Y487680D01*
X324841Y473456D02*
X400463D01*
X293624Y442239D02*
X324841Y473456D01*
X323157Y477520D02*
X398780D01*
X321474Y481584D02*
X395224D01*
X319790Y485648D02*
X368808D01*
X332943Y489712D02*
X340360Y497129D01*
X318107Y489712D02*
X332943D01*
X289560Y443923D02*
X323157Y477520D01*
X285496Y445606D02*
X321474Y481584D01*
X281432Y447290D02*
X319790Y485648D01*
X277368Y448973D02*
X318107Y489712D01*
X293624Y394259D02*
Y442239D01*
X297688Y342167D02*
Y371500D01*
X285496Y329975D02*
X297688Y342167D01*
X277368Y220472D02*
X287020Y210820D01*
Y200660D02*
Y210820D01*
X277368Y220472D02*
Y335788D01*
X558800Y508000D02*
X559206Y507594D01*
Y487909D02*
Y507594D01*
X553898Y482600D02*
X559206Y487909D01*
X547920Y482600D02*
X553898D01*
X525780D02*
X534120D01*
X413004Y491744D02*
X516636D01*
X398780Y477520D02*
X413004Y491744D01*
X225711Y368481D02*
X246917D01*
X289560Y388627D02*
X294694Y383493D01*
X289560Y388627D02*
Y443923D01*
X314960Y499237D02*
Y508000D01*
X310744Y495021D02*
X314960Y499237D01*
X289585Y495021D02*
X310744D01*
X282524Y487959D02*
X289585Y495021D01*
X282524Y482058D02*
Y487959D01*
X273304Y361696D02*
Y453949D01*
X281457Y467191D02*
X282524Y468258D01*
X281457Y462102D02*
Y467191D01*
X273304Y453949D02*
X281457Y462102D01*
X340360Y497129D02*
Y508000D01*
X368808Y485648D02*
X391160Y508000D01*
X277368Y370332D02*
Y448973D01*
X281432Y372015D02*
Y447290D01*
X285496Y377444D02*
Y445606D01*
X244423Y354890D02*
X244907Y354406D01*
X225120Y354890D02*
X244423D01*
X269240Y487680D02*
X289560Y508000D01*
X269240Y341890D02*
Y487680D01*
X516636Y491744D02*
X525780Y482600D01*
X94818Y390525D02*
X94851Y390492D01*
X84887Y360680D02*
X170410D01*
X79858Y365709D02*
X84887Y360680D01*
X102667Y352934D02*
X102972Y352629D01*
X205740Y134620D02*
X234960D01*
X242824Y305657D02*
Y328676D01*
X236110Y335390D02*
X242824Y328676D01*
X225120Y335390D02*
X236110D01*
X146610Y354890D02*
X171120D01*
X144780Y353060D02*
X146610Y354890D01*
X207899Y300432D02*
X208609Y301142D01*
X132994Y354279D02*
X133155Y354118D01*
X178943Y301371D02*
X179172Y301142D01*
X192609D01*
X208609D02*
X208762Y300990D01*
X189490Y341890D02*
X190500Y342900D01*
X133155Y343230D02*
X133384Y343002D01*
X154940Y335280D02*
X155050Y335390D01*
X171120D01*
X170410Y360680D02*
X171120Y361390D01*
X273304Y214376D02*
X279400Y208280D01*
X285496Y377444D02*
X289560Y373380D01*
X281432Y372015D02*
X293624Y359823D01*
X277368Y370332D02*
X289560Y358140D01*
X273304Y361696D02*
X280670Y354330D01*
X260090Y214370D02*
X261620Y215900D01*
X253290Y361390D02*
X254000Y360680D01*
X225120Y361390D02*
X253290D01*
X395224Y481584D02*
X416560Y502920D01*
Y508000D01*
X293624Y343850D02*
Y359823D01*
X281432Y331658D02*
X293624Y343850D01*
X281432Y224028D02*
Y331658D01*
X287020Y218440D02*
X289560D01*
X281432Y224028D02*
X287020Y218440D01*
X277368Y335788D02*
X284480Y342900D01*
X289560Y347980D01*
X273304Y346964D02*
X280670Y354330D01*
X225120Y341890D02*
X269240D01*
X281940Y195580D02*
X287020Y200660D01*
X289560Y347980D02*
Y358140D01*
X273304Y214376D02*
Y346964D01*
X313087Y508000D02*
X314960D01*
X269240Y193040D02*
Y341890D01*
X327680Y447040D02*
X401320D01*
X321320Y440680D02*
X327680Y447040D01*
X354320Y224760D02*
Y242200D01*
X321320Y191760D02*
X354320Y224760D01*
X321320Y157850D02*
Y191760D01*
X320040Y292480D02*
X321320Y291200D01*
X320040Y292480D02*
Y327660D01*
X354320Y361940D01*
Y375550D01*
X321320Y424550D02*
Y440680D01*
X401320Y447040D02*
X406400Y441960D01*
Y88900D02*
Y441960D01*
Y88900D02*
X419100Y76200D01*
X474980D01*
X487670Y88890D01*
Y108850D01*
X454660Y157860D02*
X454670Y157850D01*
X454660Y157860D02*
Y193040D01*
X487670Y226050D01*
Y242200D01*
X454660Y291210D02*
X454670Y291200D01*
X454660Y291210D02*
Y320040D01*
X487670Y353050D01*
Y375550D01*
X454670Y424550D02*
Y441950D01*
X454660Y441960D02*
X454670Y441950D01*
X454660Y441960D02*
X459740Y447040D01*
X541020D01*
X546100Y441960D01*
Y86360D02*
Y441960D01*
Y86360D02*
X556260Y76200D01*
X612140D01*
X621020Y85080D01*
Y108850D01*
X588020Y157850D02*
Y196860D01*
X621020Y229860D01*
Y242200D01*
Y375550D02*
X622300Y374270D01*
Y355600D02*
Y374270D01*
X588020Y321320D02*
X622300Y355600D01*
X588020Y291200D02*
Y321320D01*
X112237Y322390D02*
X171120D01*
D50*
X173965Y158750D02*
Y158975D01*
X183860Y168870D01*
X241300Y227370D02*
Y233248D01*
X235356Y239192D02*
X241300Y233248D01*
X114571Y342646D02*
X115155Y343230D01*
X235330Y265810D02*
X241300Y271780D01*
X235330Y247396D02*
Y265810D01*
X204724Y247396D02*
X219330D01*
X235356Y239192D02*
Y247370D01*
X145168Y390492D02*
X154771Y380890D01*
X133384Y343002D02*
X145136D01*
X150524Y348390D01*
D51*
X139700Y267680D02*
X149860D01*
X127000D02*
X139700D01*
X87340D02*
X127000D01*
X71120Y251460D02*
X87340Y267680D01*
X71120Y162560D02*
Y251460D01*
Y162560D02*
X76520Y157160D01*
X93980D01*
X93660Y116840D02*
X93980Y117160D01*
D52*
X145000Y27940D02*
X147000D01*
X107000D02*
X109000D01*
X117831Y390492D02*
X145168D01*
D53*
X457520Y25720D02*
Y58420D01*
X495300Y56200D02*
X497520Y58420D01*
X495300Y43180D02*
Y56200D01*
X482600Y30480D02*
X495300Y43180D01*
X482600Y27940D02*
Y30480D01*
X94818Y390525D02*
Y400482D01*
X94851Y390492D02*
X117831D01*
D54*
X30480Y23660D02*
X31280Y22860D01*
X135915Y61951D02*
X145277D01*
D55*
X154771Y380890D02*
X171120D01*
X141853Y374390D02*
X171120D01*
X136397Y368934D02*
X141853Y374390D01*
X102667Y368934D02*
X136397D01*
X171120Y341890D02*
X189490D01*
X150524Y348390D02*
X171120D01*
D56*
X92406Y368934D02*
X102667D01*
X89700Y371640D02*
X92406Y368934D01*
D57*
X207899Y291897D02*
Y300432D01*
X133155Y343230D02*
Y354118D01*
X208762Y300990D02*
X216129D01*
X225120Y309981D01*
Y322390D01*
D58*
X508000Y25400D02*
D03*
X533400D02*
D03*
X558800D02*
D03*
X584200D02*
D03*
X609600D02*
D03*
X457200Y508000D02*
D03*
X482600D02*
D03*
X508000D02*
D03*
X533400D02*
D03*
X558800D02*
D03*
X584200D02*
D03*
X609600D02*
D03*
X238760D02*
D03*
X264160D02*
D03*
X289560D02*
D03*
X314960D02*
D03*
X340360D02*
D03*
X365760D02*
D03*
X391160D02*
D03*
X399466Y57861D02*
D03*
X71120Y518160D02*
D03*
X242392Y446684D02*
D03*
X431800Y25400D02*
D03*
X406400D02*
D03*
X381000D02*
D03*
X355600D02*
D03*
X330200D02*
D03*
X304800D02*
D03*
X279400D02*
D03*
D59*
X635000D02*
D03*
Y508000D02*
D03*
X416560D02*
D03*
X374066Y57861D02*
D03*
X45720Y518160D02*
D03*
X457200Y25400D02*
D03*
D60*
X242392Y421284D02*
D03*
M02*
