G04*
G04 #@! TF.GenerationSoftware,Altium Limited,Altium Designer,18.0.11 (651)*
G04*
G04 Layer_Physical_Order=2*
G04 Layer_Color=16711680*
%FSLAX44Y44*%
%MOMM*%
G71*
G01*
G75*
%ADD13C,0.6000*%
%ADD46C,2.5000*%
%ADD47R,2.5000X2.5000*%
%ADD49C,0.2540*%
%ADD50C,0.5080*%
%ADD52C,0.7620*%
%ADD53C,1.0160*%
%ADD54C,1.2700*%
%ADD57C,0.3810*%
%ADD58C,1.5000*%
%ADD59R,1.5000X1.5000*%
%ADD60R,1.5000X1.5000*%
G36*
X274320Y520700D02*
Y495300D01*
X134620D01*
Y487680D01*
Y429260D01*
X222250D01*
X222347Y429357D01*
X223520Y428871D01*
Y296518D01*
X222347Y296032D01*
X218674Y299705D01*
X217749Y300323D01*
X216659Y300540D01*
X216659Y300539D01*
X183076D01*
X181986Y300323D01*
X181061Y299705D01*
X181061Y299705D01*
X179604Y298248D01*
X165521D01*
X150732Y313036D01*
X150666Y313370D01*
X150048Y314294D01*
X150048Y314294D01*
X147629Y316714D01*
Y341720D01*
X154824Y348916D01*
X154824Y348916D01*
X155442Y349840D01*
X155659Y350930D01*
Y363903D01*
X156072Y364178D01*
X157072Y365675D01*
X157423Y367440D01*
X157072Y369205D01*
X156072Y370702D01*
X154575Y371702D01*
X152810Y372053D01*
X151045Y371702D01*
X149548Y370702D01*
X148548Y369205D01*
X148197Y367440D01*
X148548Y365675D01*
X149548Y364178D01*
X149961Y363903D01*
Y355735D01*
X148691Y355349D01*
X148042Y356322D01*
X146545Y357322D01*
X144780Y357673D01*
X143015Y357322D01*
X141518Y356322D01*
X140519Y354825D01*
X140167Y353060D01*
X140519Y351295D01*
X140922Y350691D01*
X137664Y347433D01*
X136491Y347919D01*
Y351775D01*
X137256Y352920D01*
X137607Y354686D01*
X137256Y356451D01*
X136256Y357947D01*
X134760Y358947D01*
X132994Y359298D01*
X131229Y358947D01*
X129733Y357947D01*
X128733Y356451D01*
X128382Y354686D01*
X128733Y352920D01*
X129498Y351775D01*
Y310032D01*
X129764Y308694D01*
X130522Y307560D01*
X149854Y288228D01*
X150989Y287470D01*
X152327Y287204D01*
X206702D01*
X207502Y287363D01*
X207899Y287284D01*
X209664Y287635D01*
X211161Y288635D01*
X212160Y290132D01*
X212512Y291897D01*
X212178Y293572D01*
X212193Y293857D01*
X212719Y294842D01*
X215479D01*
X223520Y286801D01*
Y116840D01*
X233680Y106680D01*
X327660D01*
Y439420D01*
X347980D01*
Y106680D01*
X462280D01*
Y431800D01*
X480060D01*
Y106680D01*
X594360D01*
Y436880D01*
X614680D01*
Y106680D01*
X627380D01*
Y43180D01*
X444500D01*
X444500Y16821D01*
X396240D01*
X396240Y33020D01*
Y43180D01*
X256540D01*
Y40640D01*
X241271D01*
X240139Y41910D01*
Y43180D01*
Y49832D01*
X240552Y50107D01*
X241552Y51604D01*
X241903Y53369D01*
X241552Y55134D01*
X240552Y56631D01*
X239056Y57631D01*
X237290Y57982D01*
X235525Y57631D01*
X234029Y56631D01*
X233029Y55134D01*
X232678Y53369D01*
X233029Y51604D01*
X234029Y50107D01*
X234442Y49832D01*
Y43180D01*
Y42154D01*
X232928Y40640D01*
X180340Y40640D01*
Y17018D01*
X155194D01*
Y40640D01*
X139233D01*
X139233Y40640D01*
X138882Y42405D01*
X138828Y42485D01*
X138843Y45889D01*
X148042Y45889D01*
X149208Y46372D01*
X149691Y47538D01*
Y54062D01*
X149208Y55228D01*
X148042Y55711D01*
X143168D01*
X143168Y63500D01*
X142685Y64666D01*
X141518Y65150D01*
X136493D01*
X136385Y65222D01*
X134620Y65573D01*
X132855Y65222D01*
X132747Y65150D01*
X126333Y65150D01*
X126225Y65222D01*
X124460Y65573D01*
X122695Y65222D01*
X122587Y65150D01*
X116173D01*
X116065Y65222D01*
X114300Y65573D01*
X112535Y65222D01*
X112427Y65150D01*
X111760D01*
X110594Y64666D01*
X110110Y63500D01*
Y62833D01*
X110038Y62725D01*
X109687Y60960D01*
X110038Y59195D01*
X110110Y59087D01*
Y58596D01*
X110594Y57430D01*
X111492Y56532D01*
X112658Y56049D01*
X119549Y56049D01*
Y49530D01*
X120032Y48364D01*
X121302Y47094D01*
X122468Y46610D01*
X122587D01*
X122695Y46539D01*
X124460Y46187D01*
X126225Y46539D01*
X126333Y46610D01*
X130430D01*
Y42513D01*
X130358Y42405D01*
X130007Y40640D01*
X130007Y40640D01*
X118329D01*
X102604Y56364D01*
X102322Y57698D01*
X103322Y59195D01*
X103673Y60960D01*
X103322Y62725D01*
X102322Y64222D01*
X100825Y65222D01*
X99060Y65573D01*
X97295Y65222D01*
X95798Y64222D01*
X94798Y62725D01*
X94447Y60960D01*
X94798Y59195D01*
X95798Y57698D01*
X96211Y57422D01*
Y55880D01*
X96211Y55880D01*
X96428Y54790D01*
X97046Y53866D01*
X99339Y51572D01*
X99205Y50978D01*
X98829Y50287D01*
X97295Y49981D01*
X97187Y49910D01*
X55880D01*
X54714Y49426D01*
X54230Y48260D01*
Y45329D01*
X53057Y44843D01*
X50426Y47474D01*
X49046Y48533D01*
X47439Y49198D01*
X45715Y49425D01*
X45715Y49425D01*
X18037D01*
Y102597D01*
X22578Y107138D01*
X23396Y107477D01*
X24776Y108535D01*
X26407Y110167D01*
X26819Y109997D01*
X30480Y109515D01*
X34141Y109997D01*
X37552Y111410D01*
X40482Y113658D01*
X42730Y116587D01*
X44143Y119999D01*
X44625Y123660D01*
X44143Y127321D01*
X42730Y130732D01*
X40482Y133662D01*
X37552Y135910D01*
X34141Y137323D01*
X30480Y137805D01*
X26819Y137323D01*
X23407Y135910D01*
X20478Y133662D01*
X18230Y130732D01*
X16817Y127321D01*
X16335Y123660D01*
X16817Y119999D01*
X16987Y119587D01*
X16753Y119353D01*
X15935Y119014D01*
X14555Y117956D01*
X14555Y117955D01*
X13873Y117273D01*
X12700Y117759D01*
X12700Y495388D01*
X74905Y495783D01*
X75387Y495300D01*
X116840D01*
Y533400D01*
X274320D01*
Y520700D01*
D02*
G37*
G36*
X645160Y119380D02*
X627380D01*
Y444500D01*
X513080D01*
Y121920D01*
X497840D01*
Y444500D01*
X378460D01*
Y121920D01*
X363220D01*
Y444500D01*
X322580D01*
X322580Y259080D01*
X233680D01*
Y279400D01*
X295390D01*
X295598Y279088D01*
X297095Y278088D01*
X298860Y277737D01*
X300625Y278088D01*
X302122Y279088D01*
X303121Y280585D01*
X303473Y282350D01*
X303121Y284115D01*
X302260Y285404D01*
Y392169D01*
X302594Y392669D01*
X303747Y393439D01*
X304747Y394936D01*
X305098Y396701D01*
X304747Y398466D01*
X303747Y399962D01*
X302260Y400956D01*
Y444500D01*
X264160D01*
X241300Y467360D01*
X180340D01*
Y492760D01*
X615103D01*
X629920Y495300D01*
X645160D01*
Y119380D01*
D02*
G37*
G36*
X141518Y54062D02*
X148042D01*
Y47538D01*
X137200Y47538D01*
X137160Y38100D01*
X132080D01*
Y48260D01*
X122468D01*
X121198Y49530D01*
Y57698D01*
X112658Y57698D01*
X111760Y58596D01*
X111760Y63500D01*
X141518Y63500D01*
X141518Y54062D01*
D02*
G37*
G36*
X101600Y16821D02*
X56245D01*
Y38895D01*
X56245Y38896D01*
X56018Y40620D01*
X55880Y40953D01*
Y48260D01*
X101600D01*
Y16821D01*
D02*
G37*
%LPC*%
G36*
X238760Y517102D02*
X236404Y516792D01*
X234209Y515882D01*
X232324Y514436D01*
X230878Y512551D01*
X229968Y510356D01*
X229658Y508000D01*
X229968Y505644D01*
X230878Y503449D01*
X232324Y501564D01*
X234209Y500118D01*
X236404Y499208D01*
X238760Y498898D01*
X241116Y499208D01*
X243311Y500118D01*
X245196Y501564D01*
X246642Y503449D01*
X247552Y505644D01*
X247862Y508000D01*
X247552Y510356D01*
X246642Y512551D01*
X245196Y514436D01*
X243311Y515882D01*
X241116Y516792D01*
X238760Y517102D01*
D02*
G37*
G36*
X96520Y327193D02*
X94755Y326842D01*
X93258Y325842D01*
X92259Y324345D01*
X91907Y322580D01*
X92259Y320815D01*
X93258Y319318D01*
X93671Y319042D01*
Y307340D01*
X93671Y307340D01*
X93888Y306250D01*
X94506Y305326D01*
X97084Y302747D01*
X96987Y302260D01*
X97338Y300495D01*
X98338Y298998D01*
X99835Y297999D01*
X101600Y297647D01*
X103365Y297999D01*
X104862Y298998D01*
X105862Y300495D01*
X106213Y302260D01*
X105862Y304025D01*
X104862Y305522D01*
X103365Y306521D01*
X101600Y306873D01*
X101113Y306776D01*
X99369Y308520D01*
Y319042D01*
X99782Y319318D01*
X100781Y320815D01*
X101133Y322580D01*
X100781Y324345D01*
X99782Y325842D01*
X98285Y326842D01*
X96520Y327193D01*
D02*
G37*
G36*
X94818Y409262D02*
X92763Y408991D01*
X90847Y408198D01*
X89202Y406936D01*
X87940Y405291D01*
X87147Y403376D01*
X86876Y401320D01*
Y390525D01*
Y380048D01*
X84084Y377256D01*
X68730Y361902D01*
X67468Y360257D01*
X66674Y358341D01*
X66404Y356286D01*
X66404Y356286D01*
Y266598D01*
X66674Y264543D01*
X67468Y262627D01*
X68730Y260983D01*
X70375Y259720D01*
X72290Y258927D01*
X74346Y258657D01*
X76401Y258927D01*
X78317Y259720D01*
X78340Y259738D01*
X139394D01*
X139700Y259698D01*
X140006Y259738D01*
X149860D01*
X151916Y260009D01*
X153831Y260802D01*
X155476Y262064D01*
X156738Y263709D01*
X157531Y265625D01*
X157802Y267680D01*
X157531Y269736D01*
X156738Y271651D01*
X155476Y273296D01*
X153831Y274558D01*
X151916Y275351D01*
X149860Y275622D01*
X139740D01*
X139740Y275622D01*
X139740Y275622D01*
X82288D01*
Y352996D01*
X95316Y366024D01*
X100434Y371142D01*
X101696Y372787D01*
X102490Y374703D01*
X102760Y376758D01*
X102760Y376758D01*
Y390525D01*
Y401320D01*
X102490Y403376D01*
X101696Y405291D01*
X100434Y406936D01*
X98789Y408198D01*
X96874Y408991D01*
X94818Y409262D01*
D02*
G37*
G36*
X30480Y287805D02*
X26819Y287323D01*
X23407Y285910D01*
X20478Y283662D01*
X18230Y280732D01*
X16817Y277321D01*
X16335Y273660D01*
X16817Y269999D01*
X18230Y266587D01*
X20478Y263658D01*
X23407Y261410D01*
X26819Y259997D01*
X30480Y259515D01*
X34141Y259997D01*
X37552Y261410D01*
X40482Y263658D01*
X42730Y266587D01*
X44143Y269999D01*
X44625Y273660D01*
X44143Y277321D01*
X42730Y280732D01*
X40482Y283662D01*
X37552Y285910D01*
X34141Y287323D01*
X30480Y287805D01*
D02*
G37*
G36*
Y237805D02*
X26819Y237323D01*
X23407Y235910D01*
X20478Y233662D01*
X18230Y230732D01*
X16817Y227321D01*
X16335Y223660D01*
X16817Y219999D01*
X18230Y216588D01*
X20478Y213658D01*
X23407Y211410D01*
X26819Y209997D01*
X30480Y209515D01*
X34141Y209997D01*
X37552Y211410D01*
X40482Y213658D01*
X42730Y216588D01*
X44143Y219999D01*
X44625Y223660D01*
X44143Y227321D01*
X42730Y230732D01*
X40482Y233662D01*
X37552Y235910D01*
X34141Y237323D01*
X30480Y237805D01*
D02*
G37*
G36*
X44504Y187684D02*
X16456D01*
Y159636D01*
X44504D01*
Y187684D01*
D02*
G37*
G36*
X98761Y109051D02*
X72938D01*
X71772Y108568D01*
X71289Y107402D01*
Y70398D01*
X71772Y69232D01*
X72938Y68749D01*
X89622D01*
X90788Y69232D01*
X91271Y70398D01*
X91271Y89790D01*
X94647Y89790D01*
X94755Y89719D01*
X96520Y89367D01*
X98285Y89719D01*
X98393Y89790D01*
X99060D01*
X100226Y90274D01*
X100710Y91440D01*
Y92107D01*
X100781Y92215D01*
X101133Y93980D01*
X100781Y95745D01*
X100710Y95853D01*
Y102267D01*
X100781Y102375D01*
X101133Y104140D01*
X100781Y105905D01*
X100710Y106013D01*
Y106680D01*
X100584Y106983D01*
Y107311D01*
X100285Y108033D01*
X100053Y108265D01*
X99928Y108568D01*
X99624Y108694D01*
X99392Y108926D01*
X99064D01*
X98761Y109051D01*
D02*
G37*
G36*
X158202Y111591D02*
X111038D01*
X109872Y111108D01*
X109389Y109942D01*
Y103418D01*
X109872Y102252D01*
X111038Y101769D01*
X129709D01*
Y93258D01*
X130192Y92092D01*
X131358Y91609D01*
X139869D01*
Y83098D01*
X140352Y81932D01*
X141518Y81449D01*
X158202D01*
X159368Y81932D01*
X159851Y83098D01*
Y109942D01*
X159368Y111108D01*
X158202Y111591D01*
D02*
G37*
G36*
X383090Y66885D02*
X365042D01*
Y48837D01*
X383090D01*
Y66885D01*
D02*
G37*
G36*
X399466Y66963D02*
X397110Y66653D01*
X394915Y65744D01*
X393030Y64297D01*
X391583Y62412D01*
X390674Y60217D01*
X390364Y57861D01*
X390674Y55505D01*
X391583Y53310D01*
X393030Y51425D01*
X394915Y49979D01*
X397110Y49069D01*
X397510Y49017D01*
X399466Y48759D01*
X401822Y49069D01*
X404017Y49979D01*
X405902Y51425D01*
X407348Y53310D01*
X408257Y55505D01*
X408568Y57861D01*
X408257Y60217D01*
X407348Y62412D01*
X405902Y64297D01*
X404017Y65744D01*
X401822Y66653D01*
X399466Y66963D01*
D02*
G37*
%LPD*%
G36*
X99060Y106680D02*
Y91440D01*
X90343Y91440D01*
X89622Y90718D01*
X89622Y70398D01*
X72938D01*
Y107402D01*
X98761D01*
X99060Y106680D01*
D02*
G37*
G36*
X158202Y83098D02*
X141518D01*
Y93258D01*
X131358D01*
Y103418D01*
X111038D01*
Y109942D01*
X158202D01*
Y83098D01*
D02*
G37*
D13*
X115570Y354330D02*
D03*
X92710Y351790D02*
D03*
X100330Y336550D02*
D03*
X104140Y342900D02*
D03*
X96520D02*
D03*
X71120Y20320D02*
D03*
Y30480D02*
D03*
Y40640D02*
D03*
X99060Y45720D02*
D03*
X81280Y20320D02*
D03*
Y30480D02*
D03*
Y40640D02*
D03*
X91440D02*
D03*
Y30480D02*
D03*
Y20320D02*
D03*
X160020D02*
D03*
X175260Y27940D02*
D03*
X167640D02*
D03*
X160020D02*
D03*
X175260Y35560D02*
D03*
X167640D02*
D03*
X160020D02*
D03*
X86360Y73660D02*
D03*
X76200Y83820D02*
D03*
X114300Y60960D02*
D03*
X134620Y40640D02*
D03*
X124460Y50800D02*
D03*
Y60960D02*
D03*
X134620D02*
D03*
Y50800D02*
D03*
X144780D02*
D03*
X76200Y73660D02*
D03*
Y93980D02*
D03*
Y104140D02*
D03*
X96520D02*
D03*
X86360D02*
D03*
Y83820D02*
D03*
Y93980D02*
D03*
X96520D02*
D03*
X144780Y86360D02*
D03*
X154940D02*
D03*
Y96520D02*
D03*
X144780D02*
D03*
X134620D02*
D03*
X154940Y106680D02*
D03*
X144780D02*
D03*
X134620D02*
D03*
X124460D02*
D03*
X114300D02*
D03*
X131919Y20320D02*
D03*
X66040Y386080D02*
D03*
X149860Y267680D02*
D03*
X213360Y158120D02*
D03*
X261620Y200660D02*
D03*
Y208280D02*
D03*
X482600Y27940D02*
D03*
X101600Y302260D02*
D03*
X96520Y322580D02*
D03*
X71120Y355600D02*
D03*
X256058Y374275D02*
D03*
X99060Y60960D02*
D03*
X94785Y400515D02*
D03*
X139700Y267680D02*
D03*
X142240Y309880D02*
D03*
X508000Y154940D02*
D03*
X204724Y247396D02*
D03*
X173965Y158750D02*
D03*
X241300Y271780D02*
D03*
X373790Y150270D02*
D03*
X338230Y157890D02*
D03*
X373380Y287020D02*
D03*
X343310Y292510D02*
D03*
X371250Y416970D02*
D03*
X340770Y424590D02*
D03*
X508410Y419510D02*
D03*
X505870Y284890D02*
D03*
X472850Y292510D02*
D03*
X637950Y396650D02*
D03*
X640490Y284890D02*
D03*
Y150270D02*
D03*
X472850Y424590D02*
D03*
X475390Y160430D02*
D03*
X608555Y159345D02*
D03*
X607470Y292510D02*
D03*
Y427130D02*
D03*
X185420Y472440D02*
D03*
Y480060D02*
D03*
Y487680D02*
D03*
X193040D02*
D03*
Y480060D02*
D03*
Y472440D02*
D03*
X200660D02*
D03*
Y480060D02*
D03*
Y487680D02*
D03*
X298860Y282350D02*
D03*
X152810Y367440D02*
D03*
X230382Y34065D02*
D03*
X237290Y53369D02*
D03*
X300486Y396701D02*
D03*
X246917Y368481D02*
D03*
X294694Y383493D02*
D03*
X244907Y354406D02*
D03*
X89700Y371640D02*
D03*
X94818Y390525D02*
D03*
X106680Y434340D02*
D03*
X114300D02*
D03*
X121920D02*
D03*
X129540D02*
D03*
Y441960D02*
D03*
X121920D02*
D03*
X114300D02*
D03*
X106680D02*
D03*
X91440Y228600D02*
D03*
X99060D02*
D03*
X106680D02*
D03*
X114300D02*
D03*
X121920D02*
D03*
X129540D02*
D03*
Y236220D02*
D03*
X121920D02*
D03*
X114300D02*
D03*
X106680D02*
D03*
X99060D02*
D03*
X91440D02*
D03*
X144780Y353060D02*
D03*
X207899Y291897D02*
D03*
X132994Y354686D02*
D03*
X178384Y301193D02*
D03*
X205740Y335280D02*
D03*
Y342900D02*
D03*
Y350520D02*
D03*
Y358140D02*
D03*
Y365760D02*
D03*
Y373380D02*
D03*
Y381000D02*
D03*
X190500D02*
D03*
Y373380D02*
D03*
Y365760D02*
D03*
Y358140D02*
D03*
Y350520D02*
D03*
Y342900D02*
D03*
Y335280D02*
D03*
X198120D02*
D03*
Y342900D02*
D03*
Y350520D02*
D03*
X198120Y358140D02*
D03*
X198120Y365760D02*
D03*
Y373380D02*
D03*
Y381000D02*
D03*
X205740Y396240D02*
D03*
X198120D02*
D03*
X190500D02*
D03*
Y403860D02*
D03*
X198120D02*
D03*
X205740D02*
D03*
Y411480D02*
D03*
X198120D02*
D03*
X190500D02*
D03*
X155050Y335390D02*
D03*
X279400Y208280D02*
D03*
X289560Y373380D02*
D03*
X261620Y215900D02*
D03*
X254000Y360680D02*
D03*
X289560Y218440D02*
D03*
X284480Y342900D02*
D03*
X280670Y354330D02*
D03*
X256540Y347980D02*
D03*
X281940Y195580D02*
D03*
D46*
X30480Y73660D02*
D03*
Y123660D02*
D03*
Y223660D02*
D03*
Y273660D02*
D03*
D47*
Y23660D02*
D03*
Y173660D02*
D03*
D49*
X292100Y288290D02*
X298450Y281940D01*
X131919Y20320D02*
Y23021D01*
X99060Y55880D02*
X131919Y23021D01*
X141016Y308656D02*
Y311104D01*
X137693Y314427D02*
X141016Y311104D01*
X137693Y314427D02*
Y343433D01*
X216659Y297691D02*
X226060Y288290D01*
X180784Y295399D02*
X183076Y297691D01*
X216659D01*
X261620Y200660D02*
X274320D01*
X261620Y208280D02*
X279400D01*
X96520Y307340D02*
X101600Y302260D01*
X96520Y307340D02*
Y322580D01*
X246583Y367995D02*
X267691D01*
X246507Y368071D02*
X246583Y367995D01*
X279648Y389509D02*
X295656D01*
X264415Y374275D02*
X279648Y389509D01*
X256058Y374275D02*
X264415D01*
X99060Y55880D02*
Y60960D01*
X141016Y308656D02*
X142240Y309880D01*
X148034Y311706D02*
Y312280D01*
X144780Y315534D02*
X148034Y312280D01*
X144780Y315534D02*
Y342900D01*
X164341Y295399D02*
X180784D01*
X148034Y311706D02*
X164341Y295399D01*
X174041Y158826D02*
X175057D01*
X173965Y158750D02*
X174041Y158826D01*
X226060Y288290D02*
X292100D01*
X144780Y342900D02*
X152810Y350930D01*
Y367440D01*
X230382Y34065D02*
X237290Y40974D01*
X229972Y33655D02*
X230382Y34065D01*
X237290Y40974D02*
Y53369D01*
X300076Y393929D02*
Y396291D01*
X295656Y389509D02*
X300076Y393929D01*
X267691Y367995D02*
X283188Y383493D01*
X294694D01*
X74346Y266598D02*
X74498Y266751D01*
X137693Y343433D02*
X144780Y350520D01*
Y353060D01*
X287020Y373380D02*
X289560D01*
X261620Y215900D02*
X264160D01*
X266700Y218440D01*
X289560D01*
X254000Y360680D02*
X274320D01*
X287020Y373380D01*
X261620Y342900D02*
X284480D01*
X245110Y354330D02*
X280670D01*
X256540Y347980D02*
X261620Y342900D01*
X274320Y200660D02*
X279400Y195580D01*
X281940D01*
D50*
X212654Y158826D02*
X213360Y158120D01*
X175057Y158826D02*
X212654D01*
D52*
X74498Y266751D02*
X75387Y267640D01*
D53*
X13116Y42764D02*
X45715D01*
X11376Y44504D02*
X13116Y42764D01*
X11376Y44504D02*
Y105356D01*
X49584Y10160D02*
X480060D01*
X49584D02*
Y38896D01*
X45715Y42764D02*
X49584Y38896D01*
X11376Y105356D02*
X19266Y113245D01*
X20066D02*
X30480Y123660D01*
X19266Y113245D02*
X20066D01*
X482600Y12700D02*
Y27940D01*
X480060Y10160D02*
X482600Y12700D01*
D54*
X139700Y267640D02*
X139740Y267680D01*
X94818Y390525D02*
Y401320D01*
X139740Y267680D02*
X149860D01*
X139700D02*
X139740D01*
X75427D02*
X139700D01*
X74346Y266598D02*
Y356286D01*
X75387Y267640D02*
X75427Y267680D01*
X74346Y356286D02*
X89700Y371640D01*
X94818Y376758D02*
Y390525D01*
X89700Y371640D02*
X94818Y376758D01*
D57*
X132994Y310032D02*
X152327Y290700D01*
X132994Y310032D02*
Y354686D01*
X152327Y290700D02*
X206702D01*
X207899Y291897D01*
D58*
X508000Y25400D02*
D03*
X533400D02*
D03*
X558800D02*
D03*
X584200D02*
D03*
X609600D02*
D03*
X457200Y508000D02*
D03*
X482600D02*
D03*
X508000D02*
D03*
X533400D02*
D03*
X558800D02*
D03*
X584200D02*
D03*
X609600D02*
D03*
X238760D02*
D03*
X264160D02*
D03*
X289560D02*
D03*
X314960D02*
D03*
X340360D02*
D03*
X365760D02*
D03*
X391160D02*
D03*
X399466Y57861D02*
D03*
X71120Y518160D02*
D03*
X242392Y446684D02*
D03*
X431800Y25400D02*
D03*
X406400D02*
D03*
X381000D02*
D03*
X355600D02*
D03*
X330200D02*
D03*
X304800D02*
D03*
X279400D02*
D03*
D59*
X635000D02*
D03*
Y508000D02*
D03*
X416560D02*
D03*
X374066Y57861D02*
D03*
X45720Y518160D02*
D03*
X457200Y25400D02*
D03*
D60*
X242392Y421284D02*
D03*
M02*
